# xmcd
#
# Track frame offsets:
#	150
#	18458
#	37729
#	53525
#	68685
#	86412
#	101471
#	118146
#	136427
#	157274
#	175394
#	195015
#	215084
#	230774
#	251879
#	268748
#	283820
#	303800
#	319239
#
# Disc length: 4521 seconds
#
# Revision: 6
# Processed by: cddbd v1.5.2PL0 Copyright (c) Steve Scherf et al.
# Submitted via: EasyCDDAExtractor 15.3.0.1
#
DISCID=1011a713
DTITLE=Anastacia - Ultimate Collection
DYEAR=2015
DGENRE=Pop/Rock
TTITLE0=I'm Outta Love
TTITLE1=Left Outside Alone
TTITLE2=Sick And Tired
TTITLE3=Paid My Dues
TTITLE4=Stupid Little Things
TTITLE5=Not That Kind
TTITLE6=Everything Burns (With Ben Moody)
TTITLE7=Welcome To My Truth
TTITLE8=You'll Never Be Alone
TTITLE9=Pieces Of A Dream
TTITLE10=Best Of You
TTITLE11=Heavy On My Heart
TTITLE12=One Day In Your Life
TTITLE13=Cowboys and Kisses
TTITLE14=Why'd You Lie To Me
TTITLE15=Love Is A Crime
TTITLE16=I Belong To You (El Ritmo De La Pasion) (With Eros Ramazzotti)
TTITLE17=Army Of Me
TTITLE18=Take This Chance
EXTD=
EXTT0=
EXTT1=
EXTT2=
EXTT3=
EXTT4=
EXTT5=
EXTT6=
EXTT7=
EXTT8=
EXTT9=
EXTT10=
EXTT11=
EXTT12=
EXTT13=
EXTT14=
EXTT15=
EXTT16=
EXTT17=
EXTT18=
PLAYORDER=
